<svg width="32" height="32" viewBox="0 0 24 24" fill="none" xmlns="http://www.w3.org/2000/svg">
<g clip-path="url(#clip0_501_2)">
<mask id="mask0_501_2" style="mask-type:alpha" maskUnits="userSpaceOnUse" x="0" y="0" width="24" height="24">
<rect width="24" height="24" fill="#D9D9D9"/>
</mask>
<g mask="url(#mask0_501_2)">
<path d="M18.4393 2.50006C18.2279 2.49381 18.0195 2.55694 17.846 2.68137L7.09137 10.8221C6.63887 11.1761 6.60262 11.8286 7.00012 12.2261L10.6551 15.8811C10.8496 16.0756 11.1169 16.1792 11.3899 16.1739C11.6628 16.1687 11.9248 16.0552 12.1153 15.8545L20.256 7.70378C20.6101 7.25129 20.5739 6.59879 20.1764 6.19984L18.4393 2.50006Z" fill="#41D1FF"/>
<path d="M11.1041 16.4363L7.0135 12.3456L3.04346 17.4901C2.87181 17.7114 2.84267 18.0004 2.9602 18.247C3.07774 18.4935 3.32245 18.6667 3.59979 18.6667H14.3644C14.2355 18.3923 14.1653 18.0896 14.1653 17.7779C14.1653 17.2494 14.3146 16.7459 14.5862 16.3236L11.1041 16.4363Z" fill="#FFC800"/>
<path d="M12.3427 15.6162L19.9887 6.40119L15.1186 2.96843L7.16556 10.9214L10.8826 14.6384L12.3427 15.6162Z" fill="url(#paint0_linear_501_2)"/>
<path d="M15.0942 16.3216C14.8226 16.744 14.6733 17.2475 14.6733 17.776C14.6733 18.0877 14.7435 18.3904 14.8724 18.6647H21.308C21.5853 18.6647 21.83 18.4916 21.9476 18.245C22.0651 17.9985 22.036 17.7095 21.8643 17.4882L15.0942 16.3216Z" fill="#5353F3"/>
</g>
</g>
<defs>
<linearGradient id="paint0_linear_501_2" x1="12.9035" y1="2.88127" x2="7.67826" y2="15.4266" gradientUnits="userSpaceOnUse">
<stop stop-color="#FFA800"/>
<stop offset="1" stop-color="#FFDE35"/>
</linearGradient>
<clipPath id="clip0_501_2">
<rect width="24" height="24" fill="white"/>
</clipPath>
</defs>
</svg>